<svg width="20" height="20" viewBox="0 0 20 20" fill="none" xmlns="http://www.w3.org/2000/svg">
<path fill-rule="evenodd" clip-rule="evenodd" d="M14.087 19.4999C14.087 19.776 14.3109 19.9999 14.587 19.9999H16.6305C16.9067 19.9999 17.1305 19.776 17.1305 19.4999V17.1302H19.5001C19.7762 17.1302 20.0001 16.9064 20.0001 16.6302V14.5868C20.0001 14.3106 19.7762 14.0868 19.5001 14.0868H17.1305V11.8042C17.1305 11.5281 16.9067 11.3042 16.6305 11.3042L14.587 11.3042C14.3109 11.3042 14.087 11.5281 14.087 11.8042L14.087 14.0868H11.8044C11.5283 14.0868 11.3044 14.3106 11.3044 14.5868V16.6302C11.3044 16.9064 11.5283 17.1302 11.8044 17.1302H14.087L14.087 19.4999Z" fill="#033048"/>
<rect x="8.6958" width="8.69565" height="3.04348" rx="0.5" transform="rotate(90 8.6958 0)" fill="#033048"/>
<rect x="3.0437" width="8.69565" height="3.04348" rx="0.5" transform="rotate(90 3.0437 0)" fill="#033048"/>
<ellipse cx="4.34783" cy="15.6522" rx="4.34783" ry="4.34783" transform="rotate(-90 4.34783 15.6522)" fill="#033048"/>
<rect x="11.3042" y="8.69531" width="8.69565" height="8.69566" rx="0.5" transform="rotate(-90 11.3042 8.69531)" fill="#033048"/>
</svg>
