<svg width="148" height="54" viewBox="0 0 148 54" fill="none" xmlns="http://www.w3.org/2000/svg">
<path d="M68.7215 20V2.54541H71.8834V17.3494H79.5709V20H68.7215Z" fill="#033048"/>
<path d="M96.659 2.54541V20H93.8465L85.6221 8.11075H85.4772V20H82.3153V2.54541H85.1448L93.3607 14.4431H93.5141V2.54541H96.659Z" fill="#033048"/>
<path d="M83.6618 37.4346H80.4743C80.3834 36.9119 80.2158 36.4488 79.9715 36.0454C79.7272 35.6363 79.4232 35.2897 79.0596 35.0056C78.6959 34.7215 78.2812 34.5085 77.8153 34.3664C77.355 34.2187 76.8579 34.1448 76.3238 34.1448C75.3749 34.1448 74.534 34.3835 73.801 34.8607C73.0681 35.3323 72.4942 36.0255 72.0795 36.9403C71.6647 37.8494 71.4573 38.9602 71.4573 40.2727C71.4573 41.6079 71.6647 42.7329 72.0795 43.6477C72.4999 44.5568 73.0738 45.2443 73.801 45.7102C74.534 46.1704 75.3721 46.4005 76.3153 46.4005C76.838 46.4005 77.3266 46.3323 77.7812 46.196C78.2414 46.0539 78.6533 45.8465 79.017 45.5738C79.3863 45.3011 79.6959 44.9659 79.9459 44.5681C80.2016 44.1704 80.3778 43.7159 80.4743 43.2045L83.6618 43.2215C83.5425 44.0511 83.284 44.8295 82.8863 45.5568C82.4942 46.2841 81.98 46.9261 81.3437 47.4829C80.7073 48.034 79.963 48.4659 79.1107 48.7784C78.2584 49.0852 77.3124 49.2386 76.2726 49.2386C74.7385 49.2386 73.3692 48.8835 72.1647 48.1732C70.9601 47.463 70.0113 46.4375 69.3181 45.0965C68.6249 43.7556 68.2783 42.1477 68.2783 40.2727C68.2783 38.392 68.6278 36.784 69.3266 35.4488C70.0255 34.1079 70.9772 33.0823 72.1817 32.3721C73.3863 31.6619 74.7499 31.3068 76.2726 31.3068C77.2442 31.3068 78.1476 31.4431 78.9829 31.7159C79.8181 31.9886 80.5624 32.3892 81.2158 32.9176C81.8692 33.4403 82.4062 34.0823 82.8266 34.8437C83.2528 35.5994 83.5312 36.463 83.6618 37.4346Z" fill="#033048"/>
<path d="M90.1881 49.2642C89.3586 49.2642 88.6114 49.1164 87.9466 48.821C87.2876 48.5198 86.7648 48.0767 86.3785 47.4914C85.9978 46.9062 85.8074 46.1846 85.8074 45.3267C85.8074 44.588 85.9438 43.9772 86.2165 43.4943C86.4893 43.0113 86.8614 42.625 87.333 42.3352C87.8046 42.0454 88.3358 41.8267 88.9268 41.6789C89.5233 41.5255 90.1398 41.4147 90.7762 41.3465C91.5432 41.267 92.1654 41.196 92.6427 41.1335C93.1199 41.0653 93.4665 40.963 93.6824 40.8267C93.904 40.6846 94.0148 40.4659 94.0148 40.1704V40.1193C94.0148 39.4772 93.8245 38.9801 93.4438 38.6278C93.0631 38.2755 92.5148 38.0994 91.7989 38.0994C91.0432 38.0994 90.4438 38.2642 90.0006 38.5937C89.5631 38.9232 89.2677 39.3125 89.1143 39.7613L86.2336 39.3522C86.4608 38.5568 86.8358 37.892 87.3586 37.3579C87.8813 36.8181 88.5205 36.4147 89.2762 36.1477C90.0319 35.875 90.8671 35.7386 91.7819 35.7386C92.4126 35.7386 93.0404 35.8125 93.6654 35.9602C94.2904 36.1079 94.8614 36.3522 95.3785 36.6931C95.8955 37.0284 96.3103 37.4858 96.6228 38.0653C96.941 38.6448 97.1001 39.3693 97.1001 40.2386V49H94.1341V47.2017H94.0319C93.8444 47.5653 93.5802 47.9062 93.2393 48.2244C92.904 48.5369 92.4807 48.7897 91.9694 48.9829C91.4637 49.1704 90.8699 49.2642 90.1881 49.2642ZM90.9893 46.9971C91.6086 46.9971 92.1455 46.875 92.6001 46.6306C93.0546 46.3806 93.404 46.0511 93.6483 45.642C93.8983 45.2329 94.0233 44.7869 94.0233 44.3039V42.7613C93.9268 42.8409 93.762 42.9147 93.529 42.9829C93.3018 43.0511 93.0461 43.1108 92.762 43.1619C92.4779 43.213 92.1966 43.2585 91.9182 43.2982C91.6398 43.338 91.3983 43.3721 91.1938 43.4005C90.7336 43.463 90.3216 43.5653 89.958 43.7073C89.5944 43.8494 89.3074 44.0483 89.0972 44.3039C88.887 44.5539 88.7819 44.8778 88.7819 45.2755C88.7819 45.8437 88.9893 46.2727 89.404 46.5625C89.8188 46.8522 90.3472 46.9971 90.9893 46.9971Z" fill="#033048"/>
<path d="M100.202 53.909V35.909H103.236V38.0738H103.415C103.574 37.7556 103.799 37.4176 104.089 37.0596C104.378 36.696 104.771 36.3863 105.265 36.1306C105.759 35.8693 106.39 35.7386 107.157 35.7386C108.168 35.7386 109.08 35.9971 109.893 36.5142C110.711 37.0255 111.359 37.784 111.836 38.7897C112.319 39.7897 112.56 41.017 112.56 42.4715C112.56 43.9091 112.324 45.1306 111.853 46.1363C111.381 47.142 110.739 47.909 109.927 48.4375C109.114 48.9659 108.194 49.2301 107.165 49.2301C106.415 49.2301 105.793 49.1051 105.299 48.8551C104.805 48.6051 104.407 48.3039 104.106 47.9517C103.81 47.5937 103.58 47.2556 103.415 46.9375H103.288V53.909H100.202ZM103.228 42.4545C103.228 43.3011 103.347 44.0426 103.586 44.6789C103.83 45.3153 104.18 45.8125 104.634 46.1704C105.094 46.5227 105.651 46.6988 106.305 46.6988C106.986 46.6988 107.557 46.517 108.018 46.1534C108.478 45.784 108.824 45.2812 109.057 44.6448C109.296 44.0028 109.415 43.2727 109.415 42.4545C109.415 41.642 109.299 40.9204 109.066 40.2897C108.833 39.659 108.486 39.1647 108.026 38.8068C107.566 38.4488 106.992 38.2698 106.305 38.2698C105.646 38.2698 105.086 38.4431 104.626 38.7897C104.165 39.1363 103.816 39.6221 103.577 40.2471C103.344 40.8721 103.228 41.6079 103.228 42.4545Z" fill="#033048"/>
<path d="M115.202 49V35.909H118.288V49H115.202ZM116.753 34.0511C116.265 34.0511 115.844 33.8892 115.492 33.5653C115.14 33.2358 114.964 32.8409 114.964 32.3806C114.964 31.9147 115.14 31.5198 115.492 31.196C115.844 30.8664 116.265 30.7017 116.753 30.7017C117.248 30.7017 117.668 30.8664 118.015 31.196C118.367 31.5198 118.543 31.9147 118.543 32.3806C118.543 32.8409 118.367 33.2358 118.015 33.5653C117.668 33.8892 117.248 34.0511 116.753 34.0511Z" fill="#033048"/>
<path d="M127.997 35.909V38.2954H120.472V35.909H127.997ZM122.329 32.7727H125.415V45.0625C125.415 45.4772 125.477 45.7954 125.602 46.017C125.733 46.2329 125.903 46.3806 126.114 46.4602C126.324 46.5397 126.557 46.5795 126.812 46.5795C127.006 46.5795 127.182 46.5653 127.341 46.5369C127.506 46.5085 127.631 46.4829 127.716 46.4602L128.236 48.8721C128.071 48.9289 127.835 48.9914 127.528 49.0596C127.227 49.1278 126.858 49.1676 126.42 49.1789C125.648 49.2017 124.952 49.0852 124.332 48.8295C123.713 48.5681 123.222 48.1647 122.858 47.6193C122.5 47.0738 122.324 46.392 122.329 45.5738V32.7727Z" fill="#033048"/>
<path d="M134.344 49.2642C133.515 49.2642 132.768 49.1164 132.103 48.821C131.444 48.5198 130.921 48.0767 130.535 47.4914C130.154 46.9062 129.964 46.1846 129.964 45.3267C129.964 44.588 130.1 43.9772 130.373 43.4943C130.646 43.0113 131.018 42.625 131.489 42.3352C131.961 42.0454 132.492 41.8267 133.083 41.6789C133.68 41.5255 134.296 41.4147 134.932 41.3465C135.699 41.267 136.322 41.196 136.799 41.1335C137.276 41.0653 137.623 40.963 137.839 40.8267C138.06 40.6846 138.171 40.4659 138.171 40.1704V40.1193C138.171 39.4772 137.981 38.9801 137.6 38.6278C137.219 38.2755 136.671 38.0994 135.955 38.0994C135.199 38.0994 134.6 38.2642 134.157 38.5937C133.719 38.9232 133.424 39.3125 133.271 39.7613L130.39 39.3522C130.617 38.5568 130.992 37.892 131.515 37.3579C132.038 36.8181 132.677 36.4147 133.432 36.1477C134.188 35.875 135.023 35.7386 135.938 35.7386C136.569 35.7386 137.197 35.8125 137.822 35.9602C138.447 36.1079 139.018 36.3522 139.535 36.6931C140.052 37.0284 140.467 37.4858 140.779 38.0653C141.097 38.6448 141.256 39.3693 141.256 40.2386V49H138.29V47.2017H138.188C138.001 47.5653 137.736 47.9062 137.396 48.2244C137.06 48.5369 136.637 48.7897 136.126 48.9829C135.62 49.1704 135.026 49.2642 134.344 49.2642ZM135.146 46.9971C135.765 46.9971 136.302 46.875 136.756 46.6306C137.211 46.3806 137.56 46.0511 137.805 45.642C138.055 45.2329 138.18 44.7869 138.18 44.3039V42.7613C138.083 42.8409 137.918 42.9147 137.685 42.9829C137.458 43.0511 137.202 43.1108 136.918 43.1619C136.634 43.213 136.353 43.2585 136.074 43.2982C135.796 43.338 135.555 43.3721 135.35 43.4005C134.89 43.463 134.478 43.5653 134.114 43.7073C133.751 43.8494 133.464 44.0483 133.253 44.3039C133.043 44.5539 132.938 44.8778 132.938 45.2755C132.938 45.8437 133.146 46.2727 133.56 46.5625C133.975 46.8522 134.503 46.9971 135.146 46.9971Z" fill="#033048"/>
<path d="M147.444 31.5454V49H144.359V31.5454H147.444Z" fill="#033048"/>
<path fill-rule="evenodd" clip-rule="evenodd" d="M36.6259 51.4999C36.6259 51.7761 36.8497 51.9999 37.1259 51.9999H44.0389C44.315 51.9999 44.5389 51.7761 44.5389 51.4999V44.5379H51.4998C51.776 44.5379 51.9998 44.314 51.9998 44.0379V37.1248C51.9998 36.8487 51.776 36.6248 51.4998 36.6248H44.5389V29.8912C44.5389 29.6151 44.315 29.3912 44.0389 29.3912L37.1259 29.3912C36.8497 29.3912 36.6259 29.6151 36.6259 29.8912L36.6259 36.6248H29.8911C29.615 36.6248 29.3911 36.8487 29.3911 37.1248V44.0379C29.3911 44.314 29.615 44.5379 29.8911 44.5379H36.6259L36.6259 51.4999Z" fill="#033048"/>
<rect x="22.6089" width="22.6087" height="7.91305" rx="0.5" transform="rotate(90 22.6089 0)" fill="#033048"/>
<rect x="7.91333" width="22.6087" height="7.91305" rx="0.5" transform="rotate(90 7.91333 0)" fill="#033048"/>
<ellipse cx="11.3044" cy="40.6956" rx="11.3044" ry="11.3044" transform="rotate(-90 11.3044 40.6956)" fill="#033048"/>
<rect x="29.3911" y="22.6088" width="22.6087" height="22.6087" rx="1" transform="rotate(-90 29.3911 22.6088)" fill="#033048"/>
</svg>
