<svg width="130" height="45" viewBox="0 0 130 45" fill="none" xmlns="http://www.w3.org/2000/svg">
<path fill-rule="evenodd" clip-rule="evenodd" d="M30.2868 42.5C30.2868 42.7761 30.5106 43 30.7868 43H36.3303C36.6064 43 36.8303 42.7761 36.8303 42.5V36.8294H42.4999C42.776 36.8294 42.9999 36.6056 42.9999 36.3294V30.786C42.9999 30.5098 42.776 30.286 42.4999 30.286H36.8303V24.8043C36.8303 24.5282 36.6064 24.3043 36.3303 24.3043L30.7868 24.3043C30.5106 24.3043 30.2868 24.5282 30.2868 24.8043L30.2868 30.286H24.8042C24.5281 30.286 24.3042 30.5098 24.3042 30.786V36.3294C24.3042 36.6056 24.5281 36.8294 24.8042 36.8294H30.2868L30.2868 42.5Z" fill="#033048"/>
<rect x="18.6958" width="18.6957" height="6.54348" rx="0.5" transform="rotate(90 18.6958 0)" fill="#033048"/>
<rect x="6.5437" width="18.6957" height="6.54348" rx="0.5" transform="rotate(90 6.5437 0)" fill="#033048"/>
<ellipse cx="9.34784" cy="33.6522" rx="9.34783" ry="9.34784" transform="rotate(-90 9.34784 33.6522)" fill="#033048"/>
<rect x="24.3042" y="18.6957" width="18.6957" height="18.6957" rx="0.5" transform="rotate(-90 24.3042 18.6957)" fill="#033048"/>
<path d="M64.8968 16.5616H75.6811V14.6585H67.0113V1.75952H64.8968V16.5616Z" fill="#033048"/>
<path d="M77.9477 16.5616H80.0623V4.29702L86.9347 16.5616H89.8951V1.75952H87.7805V14.0241L80.9081 1.75952H77.9477V16.5616Z" fill="#033048"/>
<path d="M66.1444 33.3272C66.1444 30.1553 67.836 27.6178 70.9022 27.6178H71.1136C73.0168 27.6178 74.6873 28.6963 74.8142 30.5783H76.9287C76.7807 27.5756 74.1798 25.7147 71.0079 25.7147C66.673 25.7147 64.0298 28.9923 64.0298 33.3272C64.0298 37.6621 66.673 40.9397 71.0079 40.9397C74.1798 40.9397 76.7807 39.0789 76.9287 36.0762H74.8142C74.6873 37.9582 73.0168 39.0366 71.1136 39.0366H70.9022C67.836 39.0366 66.1444 36.4991 66.1444 33.3272Z" fill="#033048"/>
<path d="M85.5372 35.8436V36.922C85.5372 38.1908 83.9513 39.2481 82.6826 39.2481H82.4711C81.4984 39.2481 80.7794 38.5925 80.7794 37.7256C80.7794 36.7528 81.6676 36.1608 82.894 36.055L85.5372 35.8436ZM87.6518 40.7283C87.5461 39.9882 87.5461 39.0366 87.5461 38.4022V33.9616C87.5461 31.8047 86.0659 29.9439 83.2535 29.9439C80.864 29.9439 79.1089 31.2761 78.982 33.2215H80.9909C81.1178 32.1642 82.0693 31.6356 83.2112 31.6356H83.3169C84.6914 31.6356 85.5372 32.4814 85.5372 33.9616V34.2999L82.6191 34.5325C80.9063 34.6806 78.7706 35.3995 78.7706 37.8101C78.7706 39.6075 80.2508 40.9397 82.2596 40.9397C83.9513 40.9397 85.2201 39.9882 85.643 39.0366C85.643 39.1423 85.643 40.1996 85.7487 40.7283H87.6518Z" fill="#033048"/>
<path d="M95.5888 31.6356H95.8002C97.3862 31.6356 98.6549 32.9043 98.6549 35.4418C98.6549 37.9793 97.3862 39.2481 95.8002 39.2481H95.5888C94.1086 39.2481 92.6284 37.9793 92.6284 35.4418C92.6284 32.9043 94.1086 31.6356 95.5888 31.6356ZM96.1174 29.9439C94.6372 29.9439 93.157 30.684 92.6284 31.6356V30.1553H90.6195V44.9574H92.6284V39.2481C93.157 40.1996 94.4258 40.9397 95.906 40.9397C98.5492 40.9397 100.664 38.9309 100.664 35.4418C100.664 31.9527 98.7606 29.9439 96.1174 29.9439Z" fill="#033048"/>
<path d="M103.09 28.2522H105.31V25.9262H103.09V28.2522ZM103.195 40.7283H105.204V30.1553H103.195V40.7283Z" fill="#033048"/>
<path d="M114.342 38.9309H112.333C111.699 38.9309 111.487 38.7194 111.487 38.085V31.8893H114.025V30.1553H111.487V26.7297H109.478V30.1553H107.152V31.8893H109.478V38.4022C109.478 39.8824 110.324 40.7283 111.804 40.7283H114.342V38.9309Z" fill="#033048"/>
<path d="M122.584 35.8436V36.922C122.584 38.1908 120.998 39.2481 119.729 39.2481H119.518C118.545 39.2481 117.826 38.5925 117.826 37.7256C117.826 36.7528 118.714 36.1608 119.941 36.055L122.584 35.8436ZM124.698 40.7283C124.593 39.9882 124.593 39.0366 124.593 38.4022V33.9616C124.593 31.8047 123.112 29.9439 120.3 29.9439C117.911 29.9439 116.155 31.2761 116.029 33.2215H118.037C118.164 32.1642 119.116 31.6356 120.258 31.6356H120.363C121.738 31.6356 122.584 32.4814 122.584 33.9616V34.2999L119.666 34.5325C117.953 34.6806 115.817 35.3995 115.817 37.8101C115.817 39.6075 117.297 40.9397 119.306 40.9397C120.998 40.9397 122.267 39.9882 122.689 39.0366C122.689 39.1423 122.689 40.1996 122.795 40.7283H124.698Z" fill="#033048"/>
<path d="M127.666 40.7283H129.675V25.9262H127.666V40.7283Z" fill="#033048"/>
</svg>
